<?xml version="1.0" standalone="no"?><!DOCTYPE svg PUBLIC "-//W3C//DTD SVG 1.1//EN" "http://www.w3.org/Graphics/SVG/1.1/DTD/svg11.dtd"><svg t="1616141082857" class="icon" viewBox="0 0 1024 1024" version="1.1" xmlns="http://www.w3.org/2000/svg" p-id="2536" xmlns:xlink="http://www.w3.org/1999/xlink" width="128" height="128"><defs><style type="text/css"></style></defs><path d="M509.5 928.7c-356 0-520-308.5-396.9-563.1C171 244.8 286.8 176.9 420.8 187.9c59.6 4.9 118.3 6.1 177.9 1.5 124.5-9.6 236.4 51.6 297.5 160.5 147.2 262.1-38.9 578.8-386.7 578.8z" fill="#FFD401" p-id="2537"></path><path d="M221.3 345.8c-17.7 22.4-30.2 50.9-30.1 80 0.1 17.9 15.7 35.1 34.3 34.3 18.5-0.8 34.4-15.1 34.3-34.3 0-1.5 0.2-3.2 0.1-4.7 0.2 2.7-1.1 5.4-0.1 1 1-4.6 2.1-9.1 3.6-13.6 0.2-0.6 2.3-6.6 1.2-3.6-1.2 2.9 1.4-2.8 1.6-3.4 1-1.9 2-3.8 3-5.6 0.8-1.3 4.9-7 0.5-1.6 11.5-14.5 14.2-34.3 0-48.5-11.8-12-36.9-14.7-48.4 0z" fill="#FFFFFF" p-id="2538"></path><path d="M525 345.7l57.7-67.3c3.5-4.1 8.5-6.6 13.8-7.1l101.1-8.4c20.1-1.7 25.9-28.3 8.3-38.2L651.1 194c-8.3-4.7-12.3-14.5-9.6-23.7l14.5-48.7c4.7-15.6-9.9-30.1-25.5-25.4L515.3 131c-3.9 1.2-8 1.2-11.8 0L388.4 96.3c-15.6-4.7-30.1 9.8-25.5 25.4l14.5 48.7c2.7 9.2-1.3 19-9.6 23.7L313 224.8c-17.6 9.8-11.8 36.5 8.3 38.2l101.1 8.4c5.3 0.4 10.3 3 13.8 7.1l57.7 67.3c8.2 9.4 22.9 9.4 31.1-0.1z" fill="#8BC03C" p-id="2539"></path><path d="M598.7 189.3c-59.6 4.6-118.3 3.4-177.9-1.5-15.5-1.3-30.7-1.4-45.7-0.6-1.8 2.8-4.2 5.1-7.2 6.8L313 224.8c-17.6 9.8-11.8 36.5 8.3 38.2l101.1 8.4c5.3 0.4 10.3 3 13.8 7.1l57.7 67.3c8.2 9.5 22.8 9.5 31 0l57.7-67.3c3.5-4.1 8.5-6.6 13.8-7.1l101.1-8.4c20.1-1.7 25.9-28.3 8.3-38.2L651.1 194c-2.3-1.3-4.3-3-5.9-5-15.3-1-30.8-0.9-46.5 0.3z" fill="#8BA000" p-id="2540"></path><path d="M513.1 245c-18.9 0-34.3-15.3-34.3-34.3v-43.3c0-18.9 15.3-34.3 34.3-34.3 18.9 0 34.3 15.3 34.3 34.3v43.3c0 19-15.4 34.3-34.3 34.3z" fill="#22802A" p-id="2541"></path></svg>